<svg xmlns="http://www.w3.org/2000/svg" viewBox="0 0 640 480" role="img" aria-label="United Kingdom">
    <rect width="640" height="480" fill="#012169"/>
    <polygon points="0,0 70,0 640,410 640,480 570,480 0,70" fill="#FFF"/>
    <polygon points="640,0 570,0 0,410 0,480 70,480 640,70" fill="#FFF"/>
    <polygon points="0,0 35,0 640,445 640,480 605,480 0,35" fill="#C8102E"/>
    <polygon points="640,0 605,0 0,445 0,480 35,480 640,35" fill="#C8102E"/>
    <rect x="0" y="190" width="640" height="100" fill="#FFF"/>
    <rect x="270" y="0" width="100" height="480" fill="#FFF"/>
    <rect x="0" y="210" width="640" height="60" fill="#C8102E"/>
    <rect x="290" y="0" width="60" height="480" fill="#C8102E"/>
</svg>
